<mxfile host="65bd71144e">
    <diagram id="QPe0nrpzQiQnVDlpYsLP" name="Page-1">
        <mxGraphModel dx="900" dy="542" grid="1" gridSize="10" guides="1" tooltips="1" connect="1" arrows="1" fold="1" page="1" pageScale="1" pageWidth="850" pageHeight="1100" math="0" shadow="0">
            <root>
                <mxCell id="0"/>
                <mxCell id="1" parent="0"/>
                <mxCell id="2" value="Deploy NGINX Application" style="text;html=1;align=center;verticalAlign=middle;whiteSpace=wrap;rounded=0;fontStyle=1" parent="1" vertex="1">
                    <mxGeometry x="40" y="240" width="180" height="30" as="geometry"/>
                </mxCell>
                <mxCell id="3" value="" style="rounded=0;whiteSpace=wrap;html=1;fillColor=#ffe6cc;strokeColor=#d79b00;" parent="1" vertex="1">
                    <mxGeometry x="200" y="280" width="1030" height="540" as="geometry"/>
                </mxCell>
                <mxCell id="4" value="" style="rounded=1;whiteSpace=wrap;html=1;fillColor=#e1d5e7;strokeColor=#9673a6;" parent="1" vertex="1">
                    <mxGeometry x="290" y="330" width="220" height="240" as="geometry"/>
                </mxCell>
                <mxCell id="5" value="&lt;b&gt;&lt;font color=&quot;#000000&quot;&gt;Kubernates Cluster&lt;/font&gt;&lt;/b&gt;" style="text;html=1;align=center;verticalAlign=middle;whiteSpace=wrap;rounded=0;" parent="1" vertex="1">
                    <mxGeometry x="210" y="290" width="145" height="30" as="geometry"/>
                </mxCell>
                <mxCell id="6" value="&lt;b&gt;&lt;font color=&quot;#000000&quot;&gt;Master Node&lt;/font&gt;&lt;/b&gt;" style="text;html=1;align=center;verticalAlign=middle;whiteSpace=wrap;rounded=0;" parent="1" vertex="1">
                    <mxGeometry x="355" y="330" width="90" height="30" as="geometry"/>
                </mxCell>
                <mxCell id="7" value="" style="group" parent="1" connectable="0" vertex="1">
                    <mxGeometry x="310" y="380" width="180" height="30" as="geometry"/>
                </mxCell>
                <mxCell id="8" value="" style="rounded=0;whiteSpace=wrap;html=1;fillColor=#dae8fc;strokeColor=#6c8ebf;" parent="7" vertex="1">
                    <mxGeometry width="180" height="30" as="geometry"/>
                </mxCell>
                <mxCell id="9" value="&lt;b&gt;&lt;font color=&quot;#000000&quot;&gt;API Server&lt;/font&gt;&lt;/b&gt;" style="text;html=1;align=center;verticalAlign=middle;whiteSpace=wrap;rounded=0;" parent="7" vertex="1">
                    <mxGeometry x="45" width="90" height="30" as="geometry"/>
                </mxCell>
                <mxCell id="11" value="" style="group" parent="1" connectable="0" vertex="1">
                    <mxGeometry x="310" y="420" width="180" height="30" as="geometry"/>
                </mxCell>
                <mxCell id="12" value="" style="rounded=0;whiteSpace=wrap;html=1;fillColor=#dae8fc;strokeColor=#6c8ebf;" parent="11" vertex="1">
                    <mxGeometry width="180" height="30" as="geometry"/>
                </mxCell>
                <mxCell id="13" value="&lt;b&gt;&lt;font color=&quot;#000000&quot;&gt;etcd&lt;/font&gt;&lt;/b&gt;" style="text;html=1;align=center;verticalAlign=middle;whiteSpace=wrap;rounded=0;" parent="11" vertex="1">
                    <mxGeometry x="45" width="90" height="30" as="geometry"/>
                </mxCell>
                <mxCell id="15" value="" style="group" parent="1" connectable="0" vertex="1">
                    <mxGeometry x="310" y="460" width="180" height="30" as="geometry"/>
                </mxCell>
                <mxCell id="16" value="" style="rounded=0;whiteSpace=wrap;html=1;fillColor=#dae8fc;strokeColor=#6c8ebf;" parent="15" vertex="1">
                    <mxGeometry width="180" height="30" as="geometry"/>
                </mxCell>
                <mxCell id="17" value="&lt;b&gt;&lt;font color=&quot;#000000&quot;&gt;Shedular&lt;/font&gt;&lt;/b&gt;" style="text;html=1;align=center;verticalAlign=middle;whiteSpace=wrap;rounded=0;" parent="15" vertex="1">
                    <mxGeometry x="45" width="90" height="30" as="geometry"/>
                </mxCell>
                <mxCell id="18" value="" style="group" parent="1" connectable="0" vertex="1">
                    <mxGeometry x="310" y="500" width="180" height="30" as="geometry"/>
                </mxCell>
                <mxCell id="19" value="" style="rounded=0;whiteSpace=wrap;html=1;fillColor=#dae8fc;strokeColor=#6c8ebf;" parent="18" vertex="1">
                    <mxGeometry width="180" height="30" as="geometry"/>
                </mxCell>
                <mxCell id="20" value="&lt;b&gt;&lt;font color=&quot;#000000&quot;&gt;Controller- manager&lt;/font&gt;&lt;/b&gt;" style="text;html=1;align=center;verticalAlign=middle;whiteSpace=wrap;rounded=0;" parent="18" vertex="1">
                    <mxGeometry x="27.5" width="125" height="30" as="geometry"/>
                </mxCell>
                <mxCell id="22" value="" style="rounded=1;whiteSpace=wrap;html=1;fillColor=#dae8fc;strokeColor=#6c8ebf;" parent="1" vertex="1">
                    <mxGeometry x="640" y="330" width="420" height="470" as="geometry"/>
                </mxCell>
                <mxCell id="23" value="&lt;b&gt;&lt;font color=&quot;#000000&quot;&gt;Worker Node&lt;/font&gt;&lt;/b&gt;" style="text;html=1;align=center;verticalAlign=middle;whiteSpace=wrap;rounded=0;" parent="1" vertex="1">
                    <mxGeometry x="770" y="330" width="90" height="30" as="geometry"/>
                </mxCell>
                <mxCell id="28" value="" style="group" parent="1" connectable="0" vertex="1">
                    <mxGeometry x="900" y="360" width="180" height="30" as="geometry"/>
                </mxCell>
                <mxCell id="29" value="" style="rounded=0;whiteSpace=wrap;html=1;fillColor=#fff2cc;strokeColor=#d6b656;" parent="28" vertex="1">
                    <mxGeometry width="140" height="30" as="geometry"/>
                </mxCell>
                <mxCell id="30" value="&lt;b&gt;&lt;font color=&quot;#000000&quot;&gt;Kubelet&lt;/font&gt;&lt;/b&gt;" style="text;html=1;align=center;verticalAlign=middle;whiteSpace=wrap;rounded=0;" parent="28" vertex="1">
                    <mxGeometry x="25" width="90" height="30" as="geometry"/>
                </mxCell>
                <mxCell id="31" value="" style="group" parent="1" connectable="0" vertex="1">
                    <mxGeometry x="691.25" y="760" width="320" height="30" as="geometry"/>
                </mxCell>
                <mxCell id="32" value="" style="rounded=0;whiteSpace=wrap;html=1;fillColor=#fff2cc;strokeColor=#d6b656;" parent="31" vertex="1">
                    <mxGeometry width="320" height="30" as="geometry"/>
                </mxCell>
                <mxCell id="33" value="&lt;b&gt;&lt;font color=&quot;#000000&quot;&gt;Container Runtime&lt;/font&gt;&lt;/b&gt;" style="text;html=1;align=center;verticalAlign=middle;whiteSpace=wrap;rounded=0;" parent="31" vertex="1">
                    <mxGeometry x="57.5" width="232.5" height="30" as="geometry"/>
                </mxCell>
                <mxCell id="34" value="" style="rounded=0;whiteSpace=wrap;html=1;fillColor=#f5f5f5;fontColor=#333333;strokeColor=#666666;" parent="1" vertex="1">
                    <mxGeometry x="725" y="560" width="240" height="185" as="geometry"/>
                </mxCell>
                <mxCell id="61" style="edgeStyle=none;html=1;entryX=0.5;entryY=0;entryDx=0;entryDy=0;fontColor=#000000;fillColor=#b0e3e6;strokeColor=#0e8088;" parent="1" source="35" target="38" edge="1">
                    <mxGeometry relative="1" as="geometry"/>
                </mxCell>
                <mxCell id="35" value="&lt;b&gt;&lt;font color=&quot;#000000&quot;&gt;nginx-pod&lt;/font&gt;&lt;/b&gt;" style="text;html=1;align=center;verticalAlign=middle;whiteSpace=wrap;rounded=0;" parent="1" vertex="1">
                    <mxGeometry x="730" y="565" width="100" height="30" as="geometry"/>
                </mxCell>
                <mxCell id="36" value="" style="group" parent="1" connectable="0" vertex="1">
                    <mxGeometry x="765" y="615" width="150" height="90" as="geometry"/>
                </mxCell>
                <mxCell id="37" value="" style="group" parent="36" connectable="0" vertex="1">
                    <mxGeometry width="150" height="90" as="geometry"/>
                </mxCell>
                <mxCell id="38" value="" style="rounded=0;whiteSpace=wrap;html=1;fillColor=#d5e8d4;strokeColor=#82b366;" parent="37" vertex="1">
                    <mxGeometry width="150" height="90" as="geometry"/>
                </mxCell>
                <mxCell id="39" value="&lt;font color=&quot;#000000&quot;&gt;&lt;b&gt;Nginx Container&lt;/b&gt;&lt;/font&gt;" style="text;html=1;align=center;verticalAlign=middle;whiteSpace=wrap;rounded=0;" parent="37" vertex="1">
                    <mxGeometry x="12.5" y="22.5" width="125" height="45" as="geometry"/>
                </mxCell>
                <mxCell id="65" value="&lt;b&gt;8080&lt;/b&gt;" style="text;html=1;strokeColor=none;fillColor=none;align=center;verticalAlign=middle;whiteSpace=wrap;rounded=0;fontColor=#000000;" parent="37" vertex="1">
                    <mxGeometry x="90" width="60" height="30" as="geometry"/>
                </mxCell>
                <mxCell id="40" value="" style="group" parent="1" connectable="0" vertex="1">
                    <mxGeometry x="930" y="715" width="180" height="30" as="geometry"/>
                </mxCell>
                <mxCell id="41" value="" style="rounded=0;whiteSpace=wrap;html=1;fillColor=#fff2cc;strokeColor=#d6b656;" parent="40" vertex="1">
                    <mxGeometry x="-20" width="110" height="30" as="geometry"/>
                </mxCell>
                <mxCell id="42" value="&lt;b&gt;&lt;font color=&quot;#000000&quot;&gt;app: client-pod&lt;/font&gt;&lt;/b&gt;" style="text;html=1;align=center;verticalAlign=middle;whiteSpace=wrap;rounded=0;fillColor=#f8cecc;strokeColor=#b85450;" parent="40" vertex="1">
                    <mxGeometry x="-20" width="110" height="30" as="geometry"/>
                </mxCell>
                <mxCell id="43" value="" style="group" parent="1" connectable="0" vertex="1">
                    <mxGeometry x="40" y="380" width="120" height="60" as="geometry"/>
                </mxCell>
                <mxCell id="44" value="" style="rounded=0;whiteSpace=wrap;html=1;fillColor=#f5f5f5;fontColor=#333333;strokeColor=#666666;" parent="43" vertex="1">
                    <mxGeometry width="120" height="60" as="geometry"/>
                </mxCell>
                <mxCell id="45" value="&lt;b&gt;&lt;font color=&quot;#000000&quot;&gt;kubectl&lt;/font&gt;&lt;/b&gt;" style="text;html=1;align=center;verticalAlign=middle;whiteSpace=wrap;rounded=0;" parent="43" vertex="1">
                    <mxGeometry x="30" y="15" width="60" height="30" as="geometry"/>
                </mxCell>
                <mxCell id="46" style="edgeStyle=orthogonalEdgeStyle;rounded=0;orthogonalLoop=1;jettySize=auto;html=1;entryX=0.013;entryY=0.336;entryDx=0;entryDy=0;entryPerimeter=0;" parent="1" source="44" target="4" edge="1">
                    <mxGeometry relative="1" as="geometry"/>
                </mxCell>
                <mxCell id="59" style="edgeStyle=none;html=1;fontColor=#000000;fillColor=#b0e3e6;strokeColor=#0e8088;" parent="1" source="25" target="57" edge="1">
                    <mxGeometry relative="1" as="geometry"/>
                </mxCell>
                <mxCell id="25" value="" style="rounded=0;whiteSpace=wrap;html=1;fillColor=#fff2cc;strokeColor=#d6b656;" parent="1" vertex="1">
                    <mxGeometry x="680" y="360" width="140" height="30" as="geometry"/>
                </mxCell>
                <mxCell id="26" value="&lt;b&gt;&lt;font color=&quot;#000000&quot;&gt;Kube-proxy&lt;/font&gt;&lt;/b&gt;" style="text;html=1;align=center;verticalAlign=middle;whiteSpace=wrap;rounded=0;" parent="1" vertex="1">
                    <mxGeometry x="705" y="360" width="90" height="30" as="geometry"/>
                </mxCell>
                <mxCell id="56" style="edgeStyle=none;html=1;fontColor=#000000;fillColor=#b0e3e6;strokeColor=#0e8088;exitX=0.902;exitY=0.364;exitDx=0;exitDy=0;exitPerimeter=0;" parent="1" source="54" target="22" edge="1">
                    <mxGeometry relative="1" as="geometry"/>
                </mxCell>
                <mxCell id="54" value="" style="shape=dataStorage;whiteSpace=wrap;html=1;fixedSize=1;fillColor=#bac8d3;strokeColor=#23445d;" parent="1" vertex="1">
                    <mxGeometry x="120" y="650" width="200" height="80" as="geometry"/>
                </mxCell>
                <mxCell id="55" value="&lt;b&gt;Node Port&lt;/b&gt;" style="text;html=1;strokeColor=none;fillColor=none;align=center;verticalAlign=middle;whiteSpace=wrap;rounded=0;fontColor=#000000;" parent="1" vertex="1">
                    <mxGeometry x="180" y="675" width="60" height="30" as="geometry"/>
                </mxCell>
                <mxCell id="60" style="edgeStyle=none;html=1;entryX=0.5;entryY=0;entryDx=0;entryDy=0;fontColor=#000000;fillColor=#b0e3e6;strokeColor=#0e8088;" parent="1" source="57" target="34" edge="1">
                    <mxGeometry relative="1" as="geometry"/>
                </mxCell>
                <mxCell id="57" value="" style="rounded=0;whiteSpace=wrap;html=1;fillColor=#fad9d5;strokeColor=#ae4132;" parent="1" vertex="1">
                    <mxGeometry x="732.5" y="460" width="225" height="70" as="geometry"/>
                </mxCell>
                <mxCell id="58" value="&lt;b&gt;&lt;font color=&quot;#000000&quot;&gt;nginx-service&lt;/font&gt;&lt;/b&gt;" style="text;html=1;align=center;verticalAlign=middle;whiteSpace=wrap;rounded=0;" parent="1" vertex="1">
                    <mxGeometry x="790" y="480" width="100" height="30" as="geometry"/>
                </mxCell>
                <mxCell id="62" value="&lt;b&gt;nodePort - 30080&lt;/b&gt;" style="text;html=1;strokeColor=none;fillColor=none;align=center;verticalAlign=middle;whiteSpace=wrap;rounded=0;fontColor=#000000;" parent="1" vertex="1">
                    <mxGeometry x="210" y="615" width="110" height="30" as="geometry"/>
                </mxCell>
                <mxCell id="63" value="&lt;b&gt;target port - 8080&lt;/b&gt;" style="text;html=1;strokeColor=none;fillColor=none;align=center;verticalAlign=middle;whiteSpace=wrap;rounded=0;fontColor=#000000;" parent="1" vertex="1">
                    <mxGeometry x="820" y="565" width="140" height="30" as="geometry"/>
                </mxCell>
                <mxCell id="64" value="&lt;b&gt;port - 8080&lt;/b&gt;" style="text;html=1;strokeColor=none;fillColor=none;align=center;verticalAlign=middle;whiteSpace=wrap;rounded=0;fontColor=#000000;" parent="1" vertex="1">
                    <mxGeometry x="860" y="460" width="97.5" height="30" as="geometry"/>
                </mxCell>
            </root>
        </mxGraphModel>
    </diagram>
</mxfile>